<svg width="111" height="111" viewBox="0 0 111 111" fill="none" xmlns="http://www.w3.org/2000/svg">
<g clip-path="url(#clip0_21_188)">
<path d="M72.1284 107.432C73.1004 107.556 74.0874 107.481 75.03 107.214C75.9725 106.946 76.8509 106.489 77.6123 105.873C78.3737 105.256 79.0022 104.491 79.4599 103.625C79.9176 102.758 80.195 101.808 80.2753 100.832C80.8253 87.0816 81.7191 45.2129 78.2816 16.441C77.8841 13.081 76.2617 9.98551 73.7249 7.74676C71.1881 5.508 67.9149 4.28318 64.5316 4.3066L47.5847 4.3066C40.4492 4.30254 33.5916 7.0721 28.4602 12.0303C23.3288 16.9885 20.3255 23.7471 20.0847 30.8785C19.5347 51.091 19.8097 78.6253 20.9441 97.566C21.0577 99.3108 21.8319 100.947 23.1091 102.141C24.3863 103.335 26.0705 103.998 27.8191 103.994L34.3159 103.994C35.2865 104.089 36.2663 103.983 37.1942 103.683C38.1222 103.383 38.9787 102.896 39.7104 102.251C40.4421 101.606 41.0335 100.818 41.4479 99.9353C41.8622 99.0525 42.0907 98.0939 42.1191 97.1191L42.1191 83.3691L55.8691 83.3691L55.8691 97.1191C55.8691 99.8541 56.9555 102.477 58.8895 104.411C60.8235 106.345 63.4465 107.432 66.1816 107.432L72.1284 107.432Z" fill="#770A23"/>
<path d="M79.4847 28.3691L79.4847 28.7472C79.9316 32.7347 79.9316 36.8597 80.2409 41.1566C80.7566 51.8472 80.9284 70.5128 80.7566 83.3003L90.7941 83.3003C92.5426 83.304 94.2268 82.6413 95.504 81.4472C96.7812 80.253 97.5554 78.617 97.6691 76.8722C98.3087 65.6957 98.2398 54.4899 97.4628 43.3222C97.1534 39.8847 96.7409 36.8597 96.1909 33.9378C95.8869 32.3665 95.0441 30.9505 93.8079 29.9339C92.5717 28.9173 91.0196 28.3639 89.4191 28.3691L79.6222 28.3691L79.4847 28.3691Z" fill="#770A23"/>
<path d="M79.4847 28.3691L79.4847 28.7472C79.9316 32.7347 79.9316 36.8597 80.2409 41.1566L80.2409 42.1191L89.8659 42.1191C91.4939 42.0925 93.0784 42.6446 94.3374 43.6769C95.5963 44.7093 96.4481 46.155 96.7409 47.7566C97.2909 50.6785 97.7034 53.841 98.0128 57.141L98.0128 66.2847C98.0128 60.716 98.0128 48.4441 97.3941 43.391C97.0847 39.9535 96.6722 36.9285 96.1222 34.0066C95.8345 32.4342 95.0079 31.0111 93.7845 29.9823C92.5612 28.9534 91.0175 28.3829 89.4191 28.3691L79.6222 28.3691L79.4847 28.3691ZM38.1316 73.0566L56.5566 73.0566C62.7441 73.0566 68.2097 62.1597 69.9284 56.2472C74.1031 41.3421 75.3292 25.7656 73.5378 10.391C73.3662 9.66165 72.961 9.00839 72.3839 8.53059C71.8068 8.05278 71.0895 7.7766 70.3409 7.74408C64.6003 5.47532 55.5253 5.54407 45.8316 6.09407C42.7806 5.89508 39.7221 6.3454 36.858 7.41532C33.9939 8.48523 31.3893 10.1504 29.216 12.3009C27.0427 14.4515 25.3502 17.0385 24.2502 19.8912C23.1503 22.7439 22.6678 25.7974 22.8347 28.8503L24.2097 53.1878C24.6222 60.4066 30.7066 73.0566 38.1316 73.0566Z" fill="#DF2F19"/>
<path d="M12.969 38.3378C13.1956 40.8486 14.1515 43.2384 15.719 45.2128C16.7955 46.5582 18.1396 47.6654 19.6662 48.4642C21.1929 49.263 22.8688 49.7361 24.5878 49.8535L45.9003 51.366L46.794 51.366C50.0861 51.3572 53.2429 50.055 55.5836 47.74C57.9244 45.425 59.2614 42.2828 59.3065 38.991L59.3065 31.8066C59.3065 29.9832 58.5822 28.2345 57.2929 26.9452C56.0036 25.6559 54.2549 24.9316 52.4315 24.9316L25.4815 24.9316C22.4743 24.9468 19.5713 26.0358 17.2961 28.0022C15.0208 29.9687 13.5228 32.6832 13.0721 35.6566C12.9519 36.545 12.9174 37.4428 12.969 38.3378Z" fill="#4A646D"/>
<path d="M12.969 38.3378C14.4404 39.103 16.0571 39.5481 17.7128 39.6441L39.0253 41.1566L39.919 41.1566C43.2288 41.1476 46.401 39.8311 48.7446 37.4939C51.0882 35.1568 52.4134 31.9882 52.4315 28.6785L52.4315 24.9316L25.4815 24.9316C22.4743 24.9468 19.5713 26.0358 17.2961 28.0022C15.0208 29.9687 13.5228 32.6832 13.0721 35.6566C12.9519 36.545 12.9174 37.4428 12.969 38.3378Z" fill="#93C8DA"/>
<path d="M24.2784 30.3284L34.0409 30.3284C35.5597 30.3284 36.7909 31.5596 36.7909 33.0784C36.7909 34.5972 35.5597 35.8284 34.0409 35.8284L24.2784 35.8284C22.7596 35.8284 21.5284 34.5972 21.5284 33.0784C21.5284 31.5596 22.7596 30.3284 24.2784 30.3284Z" fill="white"/>
<path d="M9.66904 35.2441C10.0466 32.7594 11.0022 30.3981 12.459 28.3502C13.9158 26.3023 15.8331 24.625 18.0565 23.4534C19.9129 16.9981 23.8023 11.3139 29.1467 7.24514C34.4912 3.17642 41.0056 0.940336 47.7222 0.869075L64.669 0.869076C68.8673 0.881731 72.9158 2.43056 76.0505 5.22328C79.1852 8.01601 81.1893 11.8595 81.6847 16.0285C82.0628 18.9847 82.3378 22.0097 82.6128 24.9316C82.8645 24.9122 83.1173 24.9122 83.369 24.9316L89.419 24.9316C91.8609 24.8917 94.2377 25.7198 96.1262 27.2684C98.0147 28.8169 99.2923 30.9855 99.7315 33.3878C101.612 47.9064 102.072 62.5737 101.107 77.1816C100.932 79.7958 99.7688 82.2454 97.8534 84.0331C95.938 85.8208 93.414 86.8124 90.794 86.8066L84.1253 86.8066C84.1253 92.616 83.8503 97.4628 83.7128 100.969C83.6223 102.387 83.2483 103.772 82.6128 105.043C81.9774 106.314 81.0934 107.445 80.0132 108.368C78.9331 109.291 77.6787 109.988 76.3243 110.418C74.97 110.847 73.5432 111.001 72.1284 110.869L66.1815 110.869C62.5348 110.869 59.0374 109.42 56.4588 106.842C53.8802 104.263 52.4315 100.766 52.4315 97.1191L52.4315 86.8066L45.5565 86.8066L45.5565 97.1191C45.5223 98.5429 45.2011 99.9451 44.6123 101.242C44.0234 102.539 43.179 103.703 42.1296 104.666C41.0801 105.629 39.8472 106.37 38.5046 106.845C37.162 107.32 35.7374 107.52 34.3159 107.432L27.9565 107.432C25.331 107.437 22.8023 106.44 20.886 104.646C18.9698 102.851 17.8103 100.392 17.644 97.7722C16.8878 84.8816 16.5097 64.4628 16.5097 50.5753C15.224 49.7109 14.0667 48.6694 13.0722 47.4816C11.7075 45.7775 10.7024 43.8146 10.1175 41.7113C9.53264 39.608 9.38006 37.408 9.66904 35.2441ZM90.794 79.9316C91.6711 79.9332 92.5156 79.5994 93.1546 78.9987C93.7937 78.398 94.1789 77.5758 94.2315 76.7003C95.1504 62.6517 94.6783 48.5467 92.8222 34.591C92.6686 33.7965 92.2396 33.0817 91.6108 32.5724C90.982 32.063 90.1937 31.7919 89.3847 31.8066L83.1628 31.8066C84.1597 46.3128 84.3315 67.9003 84.2284 79.9316L90.794 79.9316ZM24.519 97.3597C24.58 98.229 24.969 99.0428 25.6071 99.6363C26.2453 100.23 27.0851 100.559 27.9565 100.557L34.3159 100.557C36.9284 100.557 38.6815 99.1816 38.6815 97.1191L38.6815 86.8066C37.7699 86.8066 36.8955 86.4444 36.2509 85.7998C35.6062 85.1551 35.244 84.2808 35.244 83.3691C35.244 82.4574 35.6062 81.583 36.2509 80.9384C36.8955 80.2937 37.7699 79.9316 38.6815 79.9316L52.4315 79.9316C54.2549 79.9316 56.0036 80.6559 57.2929 81.9452C58.5822 83.2345 59.3065 84.9832 59.3065 86.8066L59.3065 97.1191C59.3065 98.9424 60.0309 100.691 61.3202 101.98C62.6095 103.27 64.3582 103.994 66.1815 103.994L72.1284 103.994C74.9472 103.994 76.769 102.722 76.8378 100.557C77.3878 86.9785 78.3159 45.5566 74.8784 16.716C74.5823 14.1944 73.3664 11.8707 71.4635 10.1899C69.5607 8.50907 67.1047 7.58925 64.5659 7.60658L47.619 7.60658C43.0799 7.62251 38.6378 8.92203 34.8058 11.3551C30.9738 13.7881 27.9081 17.2554 25.9628 21.3566L52.4315 21.3566C55.1666 21.3566 57.7896 22.4431 59.7236 24.377C61.6576 26.311 62.744 28.934 62.744 31.6691L62.744 38.8535C62.744 43.0837 61.0636 47.1406 58.0724 50.1318C55.0812 53.123 51.0242 54.8034 46.794 54.8034L45.5565 54.8034L24.244 53.2909L23.3159 53.2909C23.4534 66.1816 23.7972 85.4316 24.519 97.3597ZM18.4003 43.1847C19.1745 44.1725 20.1458 44.9882 21.2525 45.58C22.3592 46.1719 23.577 46.5268 24.8284 46.6222L46.1409 48.1347C47.3921 48.2454 48.6524 48.088 49.8379 47.6731C51.0235 47.2582 52.1069 46.5952 53.0159 45.7285C53.9382 44.8689 54.6689 43.8247 55.1605 42.6638C55.6521 41.5029 55.8935 40.2514 55.869 38.991L55.869 31.8066C55.869 30.8949 55.5069 30.0206 54.8622 29.3759C54.2176 28.7312 53.3432 28.3691 52.4315 28.3691L25.4815 28.3691C23.7656 28.3727 22.0856 28.861 20.6349 29.7776C19.1843 30.6942 18.0221 32.002 17.2821 33.5502C16.5421 35.0984 16.2545 36.8241 16.4523 38.5286C16.6501 40.2331 17.3254 41.8471 18.4003 43.1847Z" fill="black"/>
</g>
<defs>
<clipPath id="clip0_21_188">
<rect width="110" height="110" fill="white" transform="matrix(-1 -8.74228e-08 -8.74228e-08 1 110.869 0.86908)"/>
</clipPath>
</defs>
</svg>
