<svg width="402" height="141" viewBox="0 0 402 141" fill="none" xmlns="http://www.w3.org/2000/svg">
<g filter="url(#filter0_d_20_102)">
<path d="M106.851 24.564V25.904C105.377 25.9487 104.26 26.1273 103.501 26.44C102.742 26.708 102.228 27.244 101.96 28.048C101.692 28.8073 101.558 30.0133 101.558 31.666V64.898C101.558 66.506 101.692 67.712 101.96 68.516C102.228 69.32 102.742 69.856 103.501 70.124C104.26 70.392 105.377 70.5707 106.851 70.66V72C105.868 71.9107 104.551 71.866 102.898 71.866C101.245 71.8213 99.4811 71.799 97.6051 71.799C95.9971 71.799 94.3445 71.8213 92.6471 71.866C90.9945 71.866 89.6321 71.9107 88.5601 72V70.66C90.0341 70.5707 91.1508 70.392 91.9101 70.124C92.7141 69.856 93.2278 69.32 93.4511 68.516C93.7191 67.712 93.8531 66.506 93.8531 64.898V31.666C93.8531 30.0133 93.7191 28.785 93.4511 27.981C93.1831 27.177 92.6471 26.641 91.8431 26.373C91.0838 26.0603 89.9448 25.904 88.4261 25.904H78.8451C77.3265 25.904 76.1651 26.0603 75.3611 26.373C74.6018 26.641 74.0881 27.177 73.8201 27.981C73.5521 28.785 73.4181 30.0133 73.4181 31.666V64.898C73.4181 66.506 73.5521 67.712 73.8201 68.516C74.0881 69.32 74.6018 69.856 75.3611 70.124C76.1205 70.392 77.2371 70.5707 78.7111 70.66V72C77.6391 71.9107 76.2768 71.866 74.6241 71.866C73.0161 71.8213 71.3635 71.799 69.6661 71.799C67.7901 71.799 66.0258 71.8213 64.3731 71.866C62.7651 71.866 61.4475 71.9107 60.4201 72V70.66C61.8941 70.5707 63.0108 70.392 63.7701 70.124C64.5741 69.856 65.0878 69.32 65.3111 68.516C65.5791 67.712 65.7131 66.506 65.7131 64.898V31.666C65.7131 30.0133 65.5791 28.8073 65.3111 28.048C65.0878 27.244 64.5741 26.708 63.7701 26.44C63.0108 26.1273 61.8941 25.9487 60.4201 25.904V24.564C61.4475 24.6087 62.7651 24.6533 64.3731 24.698C66.0258 24.7427 67.7901 24.765 69.6661 24.765C72.3015 24.765 74.9145 24.7427 77.5051 24.698C80.0958 24.6087 82.1728 24.564 83.7361 24.564C85.2995 24.564 87.3541 24.6087 89.9001 24.698C92.4461 24.7427 95.0145 24.765 97.6051 24.765C99.4811 24.765 101.245 24.7427 102.898 24.698C104.551 24.6533 105.868 24.6087 106.851 24.564ZM112.11 24.564C113.137 24.6087 114.455 24.6533 116.063 24.698C117.715 24.7427 119.346 24.765 120.954 24.765C123.098 24.765 125.13 24.7427 127.051 24.698C129.016 24.6533 130.401 24.631 131.205 24.631C136.877 24.631 141.121 25.8593 143.935 28.316C146.749 30.7727 148.156 33.944 148.156 37.83C148.156 39.438 147.865 41.1353 147.285 42.922C146.749 44.664 145.788 46.2943 144.404 47.813C143.019 49.287 141.143 50.493 138.776 51.431C136.408 52.369 133.393 52.838 129.731 52.838H123.165V51.498H129.061C132.053 51.498 134.331 50.895 135.895 49.689C137.503 48.483 138.575 46.8973 139.111 44.932C139.691 42.9667 139.982 40.845 139.982 38.567C139.982 34.3237 139.222 31.1523 137.704 29.053C136.185 26.9537 133.55 25.904 129.798 25.904C127.877 25.904 126.604 26.2837 125.979 27.043C125.398 27.8023 125.108 29.3433 125.108 31.666V64.764C125.108 66.4167 125.286 67.6673 125.644 68.516C126.001 69.32 126.671 69.856 127.654 70.124C128.636 70.392 130.088 70.5483 132.009 70.593V72C130.803 71.9107 129.239 71.866 127.319 71.866C125.398 71.8213 123.41 71.799 121.356 71.799C119.569 71.799 117.849 71.8213 116.197 71.866C114.589 71.866 113.226 71.9107 112.11 72V70.66C113.628 70.5707 114.767 70.392 115.527 70.124C116.286 69.856 116.777 69.32 117.001 68.516C117.269 67.712 117.403 66.506 117.403 64.898V31.666C117.403 30.0133 117.269 28.8073 117.001 28.048C116.777 27.244 116.264 26.708 115.46 26.44C114.7 26.1273 113.584 25.9487 112.11 25.904V24.564ZM170.705 24.564V25.904C169.231 25.9487 168.115 26.1273 167.355 26.44C166.596 26.708 166.082 27.244 165.814 28.048C165.546 28.8073 165.412 30.0133 165.412 31.666V64.898C165.412 66.506 165.546 67.712 165.814 68.516C166.082 69.32 166.596 69.856 167.355 70.124C168.115 70.392 169.231 70.5707 170.705 70.66V72C169.633 71.9107 168.271 71.866 166.618 71.866C165.01 71.8213 163.358 71.799 161.66 71.799C159.784 71.799 158.02 71.8213 156.367 71.866C154.759 71.866 153.442 71.9107 152.414 72V70.66C153.888 70.5707 155.005 70.392 155.764 70.124C156.568 69.856 157.082 69.32 157.305 68.516C157.573 67.712 157.707 66.506 157.707 64.898V31.666C157.707 30.0133 157.573 28.8073 157.305 28.048C157.082 27.244 156.568 26.708 155.764 26.44C155.005 26.1273 153.888 25.9487 152.414 25.904V24.564C153.442 24.6087 154.759 24.6533 156.367 24.698C158.02 24.7427 159.784 24.765 161.66 24.765C163.358 24.765 165.01 24.7427 166.618 24.698C168.271 24.6533 169.633 24.6087 170.705 24.564ZM188.393 28.718C188.393 28.718 188.371 28.9637 188.326 29.455C188.326 29.9017 188.326 30.3707 188.326 30.862C188.326 31.3533 188.326 31.599 188.326 31.599L163 69.588L162.933 67.042L188.393 28.718ZM200.185 24.564V25.904C198.711 25.9487 197.595 26.1273 196.835 26.44C196.076 26.708 195.562 27.244 195.294 28.048C195.026 28.8073 194.892 30.0133 194.892 31.666V64.898C194.892 66.506 195.026 67.712 195.294 68.516C195.562 69.32 196.076 69.856 196.835 70.124C197.595 70.392 198.711 70.5707 200.185 70.66V72C199.203 71.9107 197.885 71.866 196.232 71.866C194.58 71.8213 192.815 71.799 190.939 71.799C189.331 71.799 187.679 71.8213 185.981 71.866C184.329 71.866 182.966 71.9107 181.894 72V70.66C183.368 70.5707 184.485 70.392 185.244 70.124C186.004 69.856 186.517 69.32 186.785 68.516C187.053 67.712 187.187 66.506 187.187 64.898V31.666C187.187 30.0133 187.053 28.8073 186.785 28.048C186.517 27.244 186.004 26.708 185.244 26.44C184.485 26.1273 183.368 25.9487 181.894 25.904V24.564C182.966 24.6087 184.329 24.6533 185.981 24.698C187.679 24.7427 189.331 24.765 190.939 24.765C192.815 24.765 194.58 24.7427 196.232 24.698C197.885 24.6533 199.203 24.6087 200.185 24.564ZM223.703 24.564V25.904C222.229 25.9487 221.113 26.1273 220.353 26.44C219.594 26.708 219.08 27.244 218.812 28.048C218.544 28.8073 218.41 30.0133 218.41 31.666V64.898C218.41 66.506 218.544 67.712 218.812 68.516C219.08 69.32 219.594 69.856 220.353 70.124C221.113 70.392 222.229 70.5707 223.703 70.66V72C222.631 71.9107 221.269 71.866 219.616 71.866C218.008 71.8213 216.356 71.799 214.658 71.799C212.782 71.799 211.018 71.8213 209.365 71.866C207.757 71.866 206.44 71.9107 205.412 72V70.66C206.931 70.5707 208.07 70.392 208.829 70.124C209.589 69.856 210.08 69.32 210.303 68.516C210.571 67.712 210.705 66.506 210.705 64.898V31.666C210.705 30.0133 210.571 28.8073 210.303 28.048C210.08 27.244 209.566 26.708 208.762 26.44C208.003 26.1273 206.886 25.9487 205.412 25.904V24.564C206.44 24.6087 207.757 24.6533 209.365 24.698C211.018 24.7427 212.782 24.765 214.658 24.765C216.356 24.765 218.008 24.7427 219.616 24.698C221.269 24.6533 222.631 24.6087 223.703 24.564ZM222.229 46.741C224.999 46.741 227.5 47.009 229.733 47.545C232.011 48.0363 233.91 48.9743 235.428 50.359C236.992 51.699 238.064 53.6867 238.644 56.322L240.587 64.965C241.034 66.9303 241.458 68.315 241.86 69.119C242.307 69.8783 242.999 70.258 243.937 70.258C244.652 70.2133 245.233 70.0123 245.679 69.655C246.171 69.253 246.684 68.717 247.22 68.047L248.158 68.784C247.22 70.0793 246.171 71.1067 245.009 71.866C243.848 72.5807 242.329 72.938 240.453 72.938C238.577 72.938 236.947 72.469 235.562 71.531C234.222 70.593 233.24 68.65 232.614 65.702L230.805 56.724C230.403 54.8927 229.912 53.3293 229.331 52.034C228.795 50.7387 227.947 49.756 226.785 49.086C225.624 48.3713 223.927 48.014 221.693 48.014H217.003V46.741H222.229ZM218.343 48.014V46.741C220.219 46.6963 221.85 46.272 223.234 45.468C224.619 44.6193 225.892 43.5027 227.053 42.118L232.614 35.083C234.178 33.1623 235.183 31.532 235.629 30.192C236.076 28.8073 235.964 27.7577 235.294 27.043C234.624 26.3283 233.374 25.9487 231.542 25.904V24.564C232.48 24.6087 233.418 24.6533 234.356 24.698C235.294 24.698 236.232 24.7203 237.17 24.765C238.108 24.765 239.046 24.765 239.984 24.765C241.19 24.765 242.285 24.7427 243.267 24.698C244.295 24.6533 245.166 24.6087 245.88 24.564V25.904C244.451 26.1273 243.044 26.641 241.659 27.445C240.275 28.249 238.845 29.522 237.371 31.264L223.837 48.014H218.343ZM273.144 23.626C277.521 23.626 281.363 24.5863 284.668 26.507C288.018 28.4277 290.609 31.197 292.44 34.815C294.271 38.3883 295.187 42.7433 295.187 47.88C295.187 52.8827 294.249 57.26 292.373 61.012C290.497 64.764 287.884 67.6897 284.534 69.789C281.184 71.8883 277.365 72.938 273.077 72.938C268.655 72.938 264.791 71.9777 261.486 70.057C258.181 68.1363 255.612 65.367 253.781 61.749C251.95 58.131 251.034 53.776 251.034 48.684C251.034 43.6813 251.972 39.304 253.848 35.552C255.769 31.8 258.382 28.8743 261.687 26.775C264.992 24.6757 268.811 23.626 273.144 23.626ZM272.876 24.832C270.107 24.832 267.695 25.837 265.64 27.847C263.585 29.857 262 32.6263 260.883 36.155C259.766 39.6837 259.208 43.7707 259.208 48.416C259.208 53.1507 259.833 57.2823 261.084 60.811C262.335 64.295 264.032 66.9973 266.176 68.918C268.32 70.794 270.71 71.732 273.345 71.732C276.114 71.732 278.504 70.727 280.514 68.717C282.569 66.707 284.154 63.9377 285.271 60.409C286.432 56.8357 287.013 52.7487 287.013 48.148C287.013 43.3687 286.365 39.237 285.07 35.753C283.819 32.269 282.122 29.589 279.978 27.713C277.879 25.7923 275.511 24.832 272.876 24.832ZM341.632 24.564V25.904C340.114 25.9487 338.952 26.1273 338.148 26.44C337.389 26.708 336.875 27.244 336.607 28.048C336.339 28.8073 336.205 30.0133 336.205 31.666V64.898C336.205 66.506 336.339 67.712 336.607 68.516C336.875 69.32 337.389 69.856 338.148 70.124C338.952 70.392 340.114 70.5707 341.632 70.66V72C340.605 71.9107 339.243 71.866 337.545 71.866C335.893 71.8213 334.128 71.799 332.252 71.799C330.376 71.799 328.5 71.8213 326.624 71.866C324.748 71.866 323.207 71.9107 322.001 72V70.66C323.788 70.5707 325.15 70.392 326.088 70.124C327.026 69.856 327.652 69.32 327.964 68.516C328.322 67.712 328.5 66.506 328.5 64.898V31.666C328.5 30.0133 328.344 28.785 328.031 27.981C327.763 27.177 327.25 26.641 326.49 26.373C325.776 26.0603 324.726 25.904 323.341 25.904H322.604C321.175 25.904 320.103 26.0603 319.388 26.373C318.718 26.641 318.249 27.1993 317.981 28.048C317.758 28.852 317.579 30.058 317.445 31.666C317.222 34.3013 316.999 37.1377 316.775 40.175C316.597 43.2123 316.351 46.272 316.038 49.354C315.726 52.436 315.279 55.384 314.698 58.198C314.162 61.012 313.425 63.5357 312.487 65.769C311.549 67.9577 310.343 69.6997 308.869 70.995C307.395 72.2903 305.586 72.938 303.442 72.938C301.79 72.938 300.271 72.5137 298.886 71.665C297.546 70.8163 296.876 69.5433 296.876 67.846C296.876 66.4613 297.323 65.367 298.216 64.563C299.154 63.759 300.271 63.357 301.566 63.357C302.728 63.357 303.666 63.6697 304.38 64.295C305.14 64.8757 305.519 65.6797 305.519 66.707C305.519 67.913 305.184 68.8957 304.514 69.655C303.844 70.3697 302.929 70.995 301.767 71.531C302.08 71.5757 302.37 71.6203 302.638 71.665C302.951 71.665 303.219 71.665 303.442 71.665C305.497 71.665 307.217 70.8833 308.601 69.32C309.986 67.7567 311.103 65.635 311.951 62.955C312.845 60.2303 313.537 57.1483 314.028 53.709C314.52 50.2697 314.899 46.674 315.167 42.922C315.435 39.1253 315.681 35.3733 315.904 31.666C316.038 30.1027 315.971 28.919 315.703 28.115C315.48 27.311 314.944 26.7527 314.095 26.44C313.291 26.1273 312.085 25.9487 310.477 25.904V24.564C311.415 24.6087 312.532 24.6533 313.827 24.698C315.123 24.7427 316.306 24.765 317.378 24.765C318.406 24.765 319.388 24.7427 320.326 24.698C321.309 24.6087 322.292 24.564 323.274 24.564C324.972 24.564 326.513 24.6087 327.897 24.698C329.282 24.7427 330.935 24.765 332.855 24.765C333.793 24.765 334.798 24.765 335.87 24.765C336.987 24.7203 338.037 24.698 339.019 24.698C340.047 24.6533 340.918 24.6087 341.632 24.564Z" fill="black"/>
</g>
<path d="M270.958 93.6C270.398 94.08 269.745 94.36 268.998 94.44C268.278 94.52 267.571 94.4133 266.878 94.12C266.185 93.8 265.611 93.32 265.158 92.68C264.705 92.0933 264.411 91.4267 264.278 90.68C264.145 89.9067 264.131 88.9067 264.238 87.68C264.318 86.64 264.651 85.6 265.238 84.56C265.825 83.4933 266.531 82.5467 267.358 81.72C268.211 80.8933 269.051 80.32 269.878 80C270.278 79.7333 270.611 79.6133 270.878 79.64C271.171 79.64 271.611 79.6667 272.198 79.72C272.811 79.8 273.265 79.92 273.558 80.08C273.878 80.24 274.131 80.4533 274.318 80.72C274.718 81.12 274.985 81.52 275.118 81.92C275.251 82.2933 275.318 82.6667 275.318 83.04C275.211 83.6267 274.811 84.3467 274.118 85.2C273.451 86.0267 272.571 86.7067 271.478 87.24C270.891 87.4267 270.251 87.5067 269.558 87.48C268.865 87.4533 268.291 87.28 267.838 86.96C267.331 86.7467 266.998 86.7867 266.838 87.08C266.678 87.3467 266.531 88.0133 266.398 89.08C266.291 90.0933 266.371 90.84 266.638 91.32C266.905 91.7733 267.265 92.04 267.718 92.12C268.251 92.2267 268.665 92.3067 268.958 92.36C269.278 92.3867 269.665 92.2667 270.118 92C270.545 91.7333 270.811 91.5867 270.918 91.56C271.025 91.5067 271.105 91.4533 271.158 91.4C271.238 91.32 271.411 91.1467 271.678 90.88C271.865 90.6933 272.011 90.56 272.118 90.48C272.225 90.3733 272.345 90.32 272.478 90.32C272.611 90.32 272.731 90.3867 272.838 90.52C272.945 90.6267 273.051 90.7067 273.158 90.76C273.425 90.76 273.478 90.92 273.318 91.24C273.185 91.56 272.905 91.9467 272.478 92.4C272.051 92.8267 271.545 93.2267 270.958 93.6ZM270.918 85.12C271.211 84.9867 271.518 84.8 271.838 84.56C272.158 84.2933 272.425 84.0133 272.638 83.72C272.878 83.4 272.998 83.1333 272.998 82.92C272.998 82.5467 272.825 82.24 272.478 82C272.131 81.7333 271.611 81.6933 270.918 81.88C270.625 81.96 270.291 82.16 269.918 82.48C269.545 82.7733 269.185 83.1067 268.838 83.48C268.518 83.8533 268.251 84.1867 268.038 84.48C267.851 84.7733 267.785 84.9467 267.838 85C267.918 85.1333 268.145 85.24 268.518 85.32C268.891 85.3733 269.305 85.3867 269.758 85.36C270.238 85.3333 270.625 85.2533 270.918 85.12ZM279.646 94.8C279.459 94.6933 279.259 94.5867 279.046 94.48C278.859 94.3733 278.672 94.2667 278.486 94.16C278.326 94.0533 278.179 93.9467 278.046 93.84C277.486 93.3333 277.112 92.7867 276.926 92.2C276.766 91.5867 276.712 91 276.766 90.44C276.819 89.88 276.899 89.4 277.006 89C277.112 88.5733 277.166 88.28 277.166 88.12C277.139 87.9067 277.179 87.7067 277.286 87.52C277.392 87.3067 277.499 87.0933 277.606 86.88C278.086 85.9467 278.526 85.1467 278.926 84.48C279.352 83.7867 279.966 82.9867 280.766 82.08C280.926 81.9467 281.072 81.8267 281.206 81.72C281.366 81.5867 281.526 81.4933 281.686 81.44L282.606 82.12C282.712 82.2267 282.779 82.36 282.806 82.52C282.832 82.6533 282.806 82.84 282.726 83.08C282.672 83.2667 282.606 83.4533 282.526 83.64C282.472 83.8 282.392 83.9467 282.286 84.08C281.832 84.5067 281.472 84.9867 281.206 85.52C280.939 86.0267 280.659 86.5467 280.366 87.08C280.366 87.32 280.272 87.52 280.086 87.68C279.899 87.8133 279.792 88.0133 279.766 88.28C279.766 88.4667 279.739 88.6533 279.686 88.84C279.632 89.0267 279.579 89.2267 279.526 89.44C279.339 89.8667 279.259 90.28 279.286 90.68C279.312 91.08 279.326 91.4933 279.326 91.92C279.539 92.0267 279.726 92.0933 279.886 92.12C280.046 92.12 280.259 91.9867 280.526 91.72C281.059 91.2667 281.432 90.8667 281.646 90.52C281.886 90.1733 282.072 89.8267 282.206 89.48C282.339 89.1333 282.526 88.7333 282.766 88.28C283.032 87.8267 283.259 87.2533 283.446 86.56C283.632 85.8667 283.766 85.2133 283.846 84.6C283.926 83.96 283.926 83.5333 283.846 83.32C283.819 83.1867 283.832 83.0267 283.886 82.84C283.939 82.6533 283.859 82.4667 283.646 82.28C283.752 82.1733 283.806 81.9733 283.806 81.68C283.806 81.3867 283.779 81.08 283.726 80.76C283.672 80.44 283.592 80.2133 283.486 80.08C283.432 79.0133 283.392 78.12 283.366 77.4C283.366 76.6533 283.379 76.0133 283.406 75.48C283.459 74.92 283.526 74.4 283.606 73.92C283.632 73.84 283.792 73.5733 284.086 73.12C284.406 72.64 284.699 72.2667 284.966 72C285.419 71.6 286.032 71.2933 286.806 71.08C287.606 70.84 288.286 70.7467 288.846 70.8C288.819 70.8267 288.979 70.84 289.326 70.84C289.699 70.84 290.112 70.8267 290.566 70.8C291.019 70.7733 291.352 70.7467 291.566 70.72C291.779 70.6667 291.992 70.6133 292.206 70.56C292.419 70.5067 292.779 70.3333 293.286 70.04C293.499 69.9067 293.672 69.8667 293.806 69.92L294.886 70.84C294.859 71.5867 294.672 72.1467 294.326 72.52C293.979 72.8667 293.312 73.0933 292.326 73.2C292.166 73.2 291.992 73.2 291.806 73.2C291.619 73.1733 291.432 73.1867 291.246 73.24C291.086 73.2933 290.939 73.2933 290.806 73.24C290.699 73.1867 290.539 73.16 290.326 73.16C290.032 73.16 289.726 73.2 289.406 73.28C289.086 73.3333 288.752 73.32 288.406 73.24C287.446 73.5067 286.699 73.8667 286.166 74.32C285.632 74.7733 285.366 75.52 285.366 76.56C285.472 77.5467 285.606 78.4267 285.766 79.2C285.952 79.9733 286.046 80.8267 286.046 81.76C286.099 82 286.166 82.2 286.246 82.36C286.326 82.52 286.286 82.6933 286.126 82.88C286.259 83.4933 286.326 84.0933 286.326 84.68C286.326 85.24 286.246 85.6667 286.086 85.96C286.032 86.1467 285.992 86.4933 285.966 87C285.966 87.48 285.832 87.9867 285.566 88.52C284.952 89.7733 284.326 90.8933 283.686 91.88C283.046 92.84 282.232 93.6533 281.246 94.32C281.059 94.4267 280.832 94.5067 280.566 94.56C280.326 94.6133 280.019 94.6933 279.646 94.8ZM292.63 93.84C292.417 93.8933 292.137 93.92 291.79 93.92C291.444 93.8933 291.137 93.8533 290.87 93.8C290.63 93.72 290.51 93.64 290.51 93.56C290.51 93.4267 290.444 93.36 290.31 93.36C290.31 93.36 290.244 93.3067 290.11 93.2C290.004 93.0933 289.83 92.9867 289.59 92.88C289.35 92.5067 289.23 92.1067 289.23 91.68C289.23 91.2267 289.35 90.52 289.59 89.56C289.67 88.8933 289.924 88.12 290.35 87.24C290.804 86.3333 291.35 85.4133 291.99 84.48C292.63 83.5467 293.297 82.7067 293.99 81.96C294.71 81.2133 295.364 80.6667 295.95 80.32C296.324 79.9467 296.777 79.7467 297.31 79.72C297.844 79.6933 298.35 79.8133 298.83 80.08C299.097 80.2133 299.364 80.4267 299.63 80.72C299.897 81.0133 300.15 81.3333 300.39 81.68C300.63 82.0267 300.83 82.3733 300.99 82.72C301.07 83.0133 301.11 83.28 301.11 83.52C301.137 83.7333 301.137 84 301.11 84.32C301.11 84.64 301.07 85.12 300.99 85.76C300.857 86.24 300.737 86.8267 300.63 87.52C300.55 88.2133 300.51 88.8133 300.51 89.32C300.457 89.8267 300.51 90.1867 300.67 90.4C300.857 90.6133 301.124 90.6267 301.47 90.44C301.79 90.28 302.097 90.2133 302.39 90.24C302.684 90.24 302.91 90.32 303.07 90.48C303.257 90.64 303.35 90.88 303.35 91.2C303.35 91.52 303.19 91.8533 302.87 92.2C302.577 92.52 302.204 92.8 301.75 93.04C301.324 93.2533 300.91 93.36 300.51 93.36C300.217 93.36 299.937 93.1867 299.67 92.84C299.404 92.4667 299.164 92.0267 298.95 91.52C298.764 90.9867 298.59 90.48 298.43 90L298.19 89.08L296.47 90.72C296.124 91.0933 295.777 91.44 295.43 91.76C295.11 92.0533 294.91 92.2667 294.83 92.4C294.697 92.64 294.444 92.88 294.07 93.12C293.724 93.36 293.244 93.6 292.63 93.84ZM292.75 91.48C293.204 91.2133 293.724 90.8267 294.31 90.32C294.897 89.7867 295.47 89.2133 296.03 88.6C296.59 87.96 297.057 87.3733 297.43 86.84C297.884 86.2267 298.23 85.6533 298.47 85.12C298.71 84.5867 298.884 84.08 298.99 83.6C298.884 83.3067 298.71 83 298.47 82.68C298.23 82.3333 298.017 82.1467 297.83 82.12C297.244 82.12 296.617 82.4933 295.95 83.24C295.31 83.96 294.684 84.7467 294.07 85.6C293.964 85.7333 293.817 85.9467 293.63 86.24C293.444 86.5333 293.257 86.8133 293.07 87.08C292.91 87.32 292.804 87.48 292.75 87.56C292.67 87.6667 292.51 87.9733 292.27 88.48C292.057 88.96 291.844 89.4533 291.63 89.96C291.417 90.44 291.31 90.76 291.31 90.92C291.31 91.08 291.324 91.2533 291.35 91.44C291.404 91.6267 291.537 91.7467 291.75 91.8C291.964 91.8533 292.297 91.7467 292.75 91.48ZM306.405 93.52C306.325 93.4133 306.245 93.28 306.165 93.12C306.112 92.96 306.085 92.8267 306.085 92.72C306.085 92.6667 306.072 92.6 306.045 92.52C306.045 92.44 305.992 92.4 305.885 92.4C305.805 92.32 305.858 92.0133 306.045 91.48C306.258 90.92 306.525 90.28 306.845 89.56C307.192 88.84 307.538 88.1467 307.885 87.48C308.258 86.7867 308.565 86.24 308.805 85.84C308.938 85.76 309.018 85.6533 309.045 85.52C309.098 85.36 309.098 85.28 309.045 85.28C309.045 85.28 309.112 85.16 309.245 84.92C309.405 84.6533 309.525 84.48 309.605 84.4C309.818 84.0267 309.978 83.6533 310.085 83.28C310.192 82.88 310.218 82.5467 310.165 82.28C310.058 82.1467 309.938 82.1067 309.805 82.16C309.672 82.2133 309.605 82.24 309.605 82.24C309.498 82.2667 309.338 82.32 309.125 82.4C308.938 82.4533 308.765 82.5333 308.605 82.64C307.992 83.0667 307.578 83.2667 307.365 83.24C307.152 83.1867 306.912 82.84 306.645 82.2C306.538 81.9067 306.498 81.6933 306.525 81.56C306.552 81.4267 306.658 81.28 306.845 81.12C307.058 80.9333 307.258 80.8133 307.445 80.76C307.632 80.68 307.778 80.6 307.885 80.52C308.178 80.3333 308.418 80.2 308.605 80.12C308.818 80.04 308.978 79.9867 309.085 79.96C309.778 79.7467 310.365 79.7067 310.845 79.84C311.325 79.9733 311.685 80.32 311.925 80.88C312.298 81.3333 312.485 81.8533 312.485 82.44C312.485 83 312.298 83.6533 311.925 84.4L311.525 85C311.392 85.2667 311.365 85.4 311.445 85.4C311.552 85.4 311.672 85.3067 311.805 85.12C311.885 85.0133 312.045 84.8533 312.285 84.64C312.525 84.4267 312.685 84.32 312.765 84.32C312.765 84.32 312.792 84.3067 312.845 84.28C312.925 84.2533 312.965 84.1467 312.965 83.96C313.045 83.88 313.125 83.8 313.205 83.72C313.312 83.64 313.365 83.6 313.365 83.6C313.472 83.6 313.672 83.48 313.965 83.24C314.285 82.9733 314.658 82.6667 315.085 82.32C315.378 82.1067 315.645 82 315.885 82C316.498 81.8133 316.992 82.0133 317.365 82.6C317.765 83.1867 317.965 83.9467 317.965 84.88L317.125 87.04L318.565 85.28C318.725 85.0667 318.885 84.88 319.045 84.72C319.232 84.56 319.392 84.4267 319.525 84.32C319.578 84.1333 319.658 84.0267 319.765 84C319.872 83.9733 319.925 83.96 319.925 83.96C319.925 83.96 319.952 83.96 320.005 83.96C320.058 83.9333 320.085 83.88 320.085 83.8C320.218 83.6933 320.365 83.6 320.525 83.52C320.685 83.4133 320.792 83.3067 320.845 83.2C321.298 83.0133 321.712 82.9867 322.085 83.12C322.458 83.2267 322.778 83.56 323.045 84.12C323.232 84.44 323.338 84.72 323.365 84.96C323.392 85.2 323.405 85.56 323.405 86.04C323.352 86.44 323.298 86.76 323.245 87C323.218 87.2133 323.192 87.44 323.165 87.68C323.138 87.92 323.098 88.2533 323.045 88.68C322.938 88.8933 322.872 89.12 322.845 89.36C322.845 89.6 322.845 89.8267 322.845 90.04C322.845 90.3867 322.858 90.6267 322.885 90.76C322.912 90.8667 323.018 90.92 323.205 90.92C323.578 90.84 324.085 90.6533 324.725 90.36C325.392 90.04 325.885 89.7333 326.205 89.44C326.605 89.0667 326.952 88.88 327.245 88.88C327.565 88.8533 327.765 89 327.845 89.32C327.898 89.4267 327.805 89.6667 327.565 90.04C327.352 90.4133 327.098 90.7733 326.805 91.12C326.538 91.4667 326.338 91.64 326.205 91.64C326.125 91.64 326.032 91.72 325.925 91.88C325.818 92.0133 325.698 92.12 325.565 92.2C325.378 92.3867 325.192 92.56 325.005 92.72C324.845 92.88 324.658 92.96 324.445 92.96C324.338 92.96 324.205 93 324.045 93.08C323.912 93.1333 323.752 93.16 323.565 93.16C323.298 93.24 322.885 93.2 322.325 93.04C321.792 92.88 321.445 92.5067 321.285 91.92C321.178 91.6267 321.085 91.16 321.005 90.52C320.925 89.8533 320.938 89.1867 321.045 88.52C321.152 88.04 321.218 87.6 321.245 87.2C321.272 86.8 321.325 86.52 321.405 86.36C321.405 86.28 321.405 86.0933 321.405 85.8C321.405 85.48 321.365 85.32 321.285 85.32C321.178 85.32 320.925 85.52 320.525 85.92C320.152 86.2933 319.698 86.7733 319.165 87.36C318.658 87.9467 318.152 88.56 317.645 89.2C317.138 89.84 316.725 90.4133 316.405 90.92C316.165 91.2133 315.952 91.5733 315.765 92C315.578 92.4267 315.445 92.6667 315.365 92.72C315.178 92.9333 314.952 92.96 314.685 92.8C314.445 92.64 314.218 92.3867 314.005 92.04C313.925 91.88 313.872 91.7467 313.845 91.64C313.818 91.5067 313.818 91.3333 313.845 91.12C313.898 90.88 313.992 90.5333 314.125 90.08C314.285 89.6267 314.498 88.9867 314.765 88.16C315.058 87.2533 315.312 86.44 315.525 85.72C315.765 84.9733 315.885 84.6 315.885 84.6C315.885 84.4933 315.685 84.6 315.285 84.92C314.885 85.2133 314.418 85.5867 313.885 86.04C313.645 86.3333 313.245 86.7733 312.685 87.36C312.125 87.9467 311.512 88.6133 310.845 89.36C310.178 90.1067 309.538 90.8933 308.925 91.72C308.152 92.8133 307.605 93.48 307.285 93.72C306.992 93.96 306.698 93.8933 306.405 93.52ZM332.977 94.36C332.577 94.28 332.204 94.24 331.857 94.24C331.537 94.24 331.231 94.2 330.937 94.12C330.671 94.0133 330.431 93.8267 330.217 93.56C329.924 93.2933 329.711 92.9733 329.577 92.6C329.444 92.2 329.377 91.76 329.377 91.28C329.377 90.4 329.524 89.4133 329.817 88.32C330.137 87.2 330.511 86.0933 330.937 85C331.364 83.9067 331.777 82.9067 332.177 82C332.577 81.0933 332.871 80.3867 333.057 79.88C333.004 79.5867 333.097 79.4267 333.337 79.4C333.604 79.3733 333.897 79.4 334.217 79.48C334.537 79.5333 334.751 79.5867 334.857 79.64C335.017 79.8267 335.177 80.0267 335.337 80.24C335.497 80.4267 335.591 80.64 335.617 80.88C335.671 81.1467 335.604 81.4133 335.417 81.68C335.257 81.9467 335.097 82.1733 334.937 82.36C334.671 82.6533 334.391 83.0933 334.097 83.68C333.804 84.2667 333.511 84.9467 333.217 85.72C332.951 86.4667 332.711 87.2267 332.497 88C332.284 88.7733 332.111 89.4933 331.977 90.16C331.871 90.8 331.831 91.32 331.857 91.72C332.604 91.96 333.351 92.0267 334.097 91.92C334.844 91.8133 335.511 91.5733 336.097 91.2C336.711 90.8 337.177 90.3467 337.497 89.84C337.871 89.2533 337.991 88.72 337.857 88.24C337.751 87.7333 337.311 87.4533 336.537 87.4C336.137 87.3733 335.764 87.3867 335.417 87.44C335.071 87.4933 334.711 87.5467 334.337 87.6C334.151 87.3867 334.017 87.2 333.937 87.04C333.857 86.88 333.804 86.72 333.777 86.56C333.751 86.2133 333.884 85.9333 334.177 85.72C334.497 85.48 334.857 85.3067 335.257 85.2C335.684 85.0933 336.057 85.0667 336.377 85.12C336.911 85.2 337.444 85.3733 337.977 85.64C338.537 85.9067 338.991 86.2267 339.337 86.6C339.551 86.8133 339.724 87.0667 339.857 87.36C340.017 87.6267 340.111 87.9067 340.137 88.2C340.244 88.8667 340.231 89.4667 340.097 90C339.964 90.5067 339.737 90.9733 339.417 91.4C338.911 92.0933 338.137 92.6667 337.097 93.12C336.084 93.5733 335.137 93.9867 334.257 94.36C333.991 94.36 333.777 94.3467 333.617 94.32C333.484 94.2667 333.271 94.28 332.977 94.36Z" fill="#FF0000"/>
<defs>
<filter id="filter0_d_20_102" x="56.4202" y="23.626" width="289.212" height="57.312" filterUnits="userSpaceOnUse" color-interpolation-filters="sRGB">
<feFlood flood-opacity="0" result="BackgroundImageFix"/>
<feColorMatrix in="SourceAlpha" type="matrix" values="0 0 0 0 0 0 0 0 0 0 0 0 0 0 0 0 0 0 127 0" result="hardAlpha"/>
<feOffset dy="4"/>
<feGaussianBlur stdDeviation="2"/>
<feComposite in2="hardAlpha" operator="out"/>
<feColorMatrix type="matrix" values="0 0 0 0 0 0 0 0 0 0 0 0 0 0 0 0 0 0 0.25 0"/>
<feBlend mode="normal" in2="BackgroundImageFix" result="effect1_dropShadow_20_102"/>
<feBlend mode="normal" in="SourceGraphic" in2="effect1_dropShadow_20_102" result="shape"/>
</filter>
</defs>
</svg>
